<svg width="381" height="547" viewBox="0 0 381 547" fill="none" xmlns="http://www.w3.org/2000/svg">
<path d="M344.503 488.647C332.371 490.296 318.758 477.152 305.952 477.99C293.686 478.791 281.499 493.658 268.739 493.658C255.98 493.658 243.793 478.791 231.519 477.99C218.713 477.152 205.1 490.296 192.96 488.647C180.138 486.906 169.651 470.446 157.737 467.866C144.931 465.103 129.838 475.945 118.277 472.306C105.518 468.29 97.5994 450.079 86.6339 445.124C74.0393 439.431 57.1289 446.082 47.2835 439.33C35.2214 431.058 33.4199 411.125 26.1749 401.572C21.7025 395.677 15.601 390.685 10.5099 385.554C10.3924 387.884 10.3141 390.243 10.3141 392.656C10.3141 498.494 126.024 545.638 268.747 545.638C308.576 545.638 346.297 541.962 379.992 534.372V467.83C379.906 467.848 379.82 467.857 379.734 467.876C367.82 470.446 357.333 486.915 344.511 488.656L344.503 488.647Z" fill="white" stroke="#F4F4F5" stroke-miterlimit="10"/>
<path d="M355.57 422.372C348.482 423.228 341.362 425.328 334.008 425.946C326.888 426.544 319.831 432.476 312.484 432.854C305.333 433.232 297.939 430.726 290.6 430.911C283.433 431.086 276.133 433.646 268.81 433.646C261.487 433.646 254.132 434.153 246.965 433.978C239.626 433.794 232.428 428.902 225.277 428.525C217.93 428.138 210.466 431.214 203.346 430.616C195.991 429.999 188.824 427.014 181.736 426.157C174.381 425.264 167.88 417.112 160.847 415.951C153.492 414.735 145.62 419.406 138.657 417.886C131.318 416.283 124.708 411.53 117.854 409.568C110.562 407.486 102.644 409.245 95.9467 406.731C88.7408 404.032 80.9162 403.442 74.47 400.228C67.4365 396.718 61.985 389.81 55.9462 385.655C49.2886 381.077 43.6727 373.699 38.3466 368.31C32.4879 362.387 25.8381 358.113 21.7338 351.15C20.1047 348.386 19.2118 345.181 18.6087 341.809C10.1183 350.007 0.852417 357.266 0.852417 367.555C0.852417 374.528 5.11329 380.11 10.5099 385.545C15.601 390.675 21.7025 395.668 26.1749 401.563C33.4199 411.115 35.2214 431.049 47.2834 439.32C57.1289 446.072 74.0393 439.422 86.6339 445.114C97.5994 450.07 105.526 468.281 118.277 472.297C129.838 475.936 144.931 465.085 157.737 467.857C169.651 470.427 180.138 486.897 192.96 488.638C205.093 490.287 218.713 477.142 231.519 477.98C243.793 478.782 255.98 493.649 268.739 493.649C281.499 493.649 293.678 478.782 305.952 477.98C318.758 477.142 332.371 490.287 344.503 488.638C357.325 486.897 367.813 470.436 379.726 467.857C379.812 467.839 379.898 467.83 379.984 467.811V422.556C379.162 422.685 378.347 422.814 377.525 422.952C370.491 424.113 362.925 421.469 355.563 422.353L355.57 422.372Z" fill="white" stroke="#F4F4F5" stroke-miterlimit="10"/>
<path d="M13.2512 265.963C12.6402 267.98 12.0763 269.998 11.5593 271.96C9.35842 280.25 12.0998 289.986 12.0998 299.446C12.0998 308.906 13.9404 316.671 16.063 324.888C17.4416 330.203 17.6295 336.246 18.6164 341.818C19.2195 345.199 20.1124 348.395 21.7416 351.159C25.8536 358.122 32.5034 362.397 38.3543 368.319C43.6882 373.717 49.3041 381.096 55.9539 385.664C61.9928 389.819 67.4442 396.727 74.4778 400.237C80.9239 403.451 88.7486 404.032 95.9545 406.74C102.651 409.245 110.57 407.486 117.862 409.577C124.715 411.539 131.326 416.292 138.665 417.895C145.628 419.415 153.5 414.745 160.855 415.96C167.888 417.121 174.389 425.273 181.744 426.167C188.832 427.023 195.991 430.008 203.354 430.625C210.473 431.224 217.938 428.147 225.285 428.534C232.436 428.912 239.634 433.812 246.973 433.987C254.147 434.162 261.494 433.655 268.818 433.655C276.141 433.655 283.441 431.095 290.608 430.92C297.947 430.735 305.341 433.241 312.492 432.863C319.838 432.476 326.896 426.554 334.015 425.955C341.37 425.338 348.49 423.237 355.578 422.381C362.941 421.487 370.507 424.131 377.54 422.98C378.363 422.841 379.177 422.712 380 422.583V337.544C313.103 372.354 259.293 407.919 259.293 407.919C175.29 332.524 52.3275 281.143 13.2512 265.963Z" fill="white" stroke="#F4F4F5" stroke-miterlimit="10"/>
<path d="M22.6659 224.641C13.3452 236.57 5.85738 248.858 0.852417 261.293C0.852417 261.293 5.33261 262.887 13.2513 265.963C52.3197 281.143 175.29 332.524 259.286 407.91C259.286 407.91 313.095 372.345 379.992 337.535V296.379C346.297 302.145 308.575 304.697 268.747 304.697C153.617 304.697 56.0872 283.391 22.6659 224.641ZM327.225 340.428L295.409 360.121C305.521 352.863 316.087 346.157 327.225 340.428ZM264.792 385.093C267.659 382.385 270.627 379.769 273.635 377.199L264.792 385.093Z" fill="white" stroke="#F4F4F5" stroke-miterlimit="10"/>
<path d="M295.409 360.121L327.225 340.428C316.095 346.157 305.521 352.863 295.409 360.121Z" fill="white" stroke="#F4F4F5" stroke-miterlimit="10"/>
<path d="M273.627 377.208C270.619 379.778 267.658 382.394 264.784 385.103L273.627 377.208Z" fill="white" stroke="#F4F4F5" stroke-miterlimit="10"/>
<path d="M10.3063 175.729C10.3063 194.336 14.6455 210.566 22.6581 224.65C56.0794 283.4 153.61 304.706 268.739 304.706C308.568 304.706 346.289 302.154 379.984 296.388V18.3899C346.297 7.53896 308.576 1.45947 268.747 1.45947C126.016 1.45947 10.3063 79.4795 10.3063 175.729ZM237.323 40.3774L211.249 42.6618C219.912 41.4735 228.614 40.7182 237.323 40.3774ZM170.269 51.8179L92.2655 93.6466C115.465 75.0489 142.025 60.716 170.269 51.8179ZM71.619 112.521L50.7063 139.243C56.6903 129.635 63.7944 120.719 71.619 112.521Z" fill="white" stroke="#F4F4F5" stroke-miterlimit="10"/>
<path d="M211.241 42.671L237.316 40.3866C228.606 40.7274 219.896 41.492 211.241 42.671Z" fill="white" stroke="#F4F4F5" stroke-miterlimit="10"/>
<path d="M92.2654 93.6466L170.269 51.8179C142.025 60.716 115.465 75.0489 92.2654 93.6466Z" fill="white" stroke="#F4F4F5" stroke-miterlimit="10"/>
<path d="M50.7062 139.243L71.6189 112.521C63.7943 120.728 56.6824 129.635 50.7062 139.243Z" fill="white" stroke="#F4F4F5" stroke-miterlimit="10"/>
</svg>
