<svg width="1440" height="184" viewBox="0 0 1440 184" fill="none" xmlns="http://www.w3.org/2000/svg">
<path opacity="0.25" d="M545.194 0.00411708C545.685 -0.00435368 546.094 -0.00100693 546.432 0.0194737C546.758 0.0391654 547.032 0.0711807 547.351 0.149909C547.841 0.270748 548.276 0.447465 548.729 0.839291C549.728 1.70528 549.799 2.99115 548.981 3.92146C547.726 5.34681 545.372 6.4896 542.044 7.4518L541.278 7.66668L540.253 7.94987L539.065 8.27537L537.195 8.7819L534.511 9.49617L530.905 10.4346L526.842 11.471L519.467 13.3198L504.8 16.9682L500.122 18.148L496.068 19.1874L492.803 20.0423L490.068 20.7749C488.804 21.1172 487.569 21.4572 486.318 21.807L483.702 22.5429L480.576 23.4283L474.839 25.0687L469.621 26.5789L465.383 27.8185L458.792 29.7683L453.564 31.3306L443.403 34.398L430.173 38.4308L398.137 48.253L382.118 53.1837L372.104 56.2802L361.041 59.7181L353.518 62.0683L344.876 64.7831L336.62 67.3939L332.627 68.664L327.432 70.324L321.133 72.3503L318.669 73.147L313.83 74.7191L309.101 76.2658L304.473 77.7903L299.933 79.2963L295.473 80.7871L291.081 82.2662L285.673 84.1039L281.398 85.5693L277.159 87.0342L272.944 88.5021L269.52 89.7033L265.529 91.1125L260.861 92.7745L257.935 93.8251L255.04 94.8717L252.176 95.9143L249.343 96.9531L246.541 97.9881C246.076 98.1602 245.613 98.3323 245.151 98.5041L242.395 99.5334L239.669 100.559C239.217 100.73 238.767 100.9 238.318 101.07L235.638 102.091L232.989 103.107L230.371 104.12L227.783 105.13L225.226 106.136L222.699 107.139L220.202 108.138L217.736 109.135L215.3 110.128C214.896 110.293 214.494 110.458 214.093 110.623L211.702 111.612L209.342 112.597L207.012 113.579C206.626 113.743 206.241 113.906 205.858 114.069L203.572 115.047L201.317 116.022L199.092 116.994L196.896 117.964L194.731 118.93C194.373 119.091 194.015 119.252 193.659 119.413L191.539 120.375L189.448 121.336L187.386 122.293C186.363 122.771 185.351 123.248 184.35 123.725L182.363 124.676C182.034 124.835 181.707 124.993 181.381 125.151L179.438 126.099C179.116 126.257 178.796 126.414 178.477 126.572L176.579 127.517C175.009 128.303 173.47 129.087 171.961 129.868L170.165 130.806C169.868 130.962 169.573 131.117 169.278 131.273L167.527 132.207C165.789 133.14 164.096 134.071 162.446 134.998L160.811 135.925C160.541 136.079 160.272 136.233 160.004 136.388L158.412 137.312C156.572 138.389 154.791 139.463 153.069 140.533C145.424 145.287 141.287 150.489 139.72 156.461C138.837 159.823 138.731 163.089 139.285 167.409L139.401 168.258C139.421 168.402 139.443 168.547 139.465 168.693L139.604 169.586L139.76 170.509L139.932 171.466C139.962 171.628 139.992 171.791 140.024 171.957L140.219 172.966C140.433 174.052 141.418 175.168 143.527 176.349L144.177 176.71L144.591 176.934L144.992 177.145L145.383 177.343L145.768 177.529C145.832 177.559 145.895 177.589 145.959 177.618L146.338 177.787C146.402 177.814 146.465 177.84 146.528 177.867L146.909 178.018L147.295 178.159C148.461 178.564 149.727 178.826 151.435 178.982L152.021 179.03L152.643 179.071L153.303 179.104L154.005 179.13C154.125 179.134 154.248 179.138 154.372 179.141L155.141 179.157L155.958 179.167L156.826 179.172L157.886 179.17L158.734 179.164L160.566 179.142L162.589 179.106L168.391 178.975L174.752 178.805L179.209 178.665L182.222 178.554L184.089 178.477L186.278 178.376L188.71 178.248L190.956 178.109L192.363 178.01L194.033 177.878L195.308 177.766L196.537 177.647L197.729 177.521L198.602 177.422L199.746 177.283L200.592 177.173L201.698 177.021L202.257 176.939L203.62 176.721L206.401 176.249L216.455 174.476L227.869 172.458L230.795 171.956L241.68 170.121L248.738 168.917L256.316 167.607L261.702 166.663L268.554 165.443L274.297 164.401L279.074 163.519L283.753 162.641L292.93 160.898L298.98 159.744L315.414 156.581L330.467 153.654L347.661 150.282L377.094 144.463L415.469 136.834L486.06 122.704L619.792 95.842L671.929 85.4281L697.012 80.449L716.795 76.5387L718.853 76.1362L722.277 75.4727L729.749 74.0506L738.361 72.4505L745.149 71.211L756.904 69.0925L878.808 47.3306L906.766 42.3785L925.694 39.0536L942.254 36.1701L957.19 33.5935L967.353 31.8536L979.84 29.7297C980.685 29.5864 981.533 29.4428 982.385 29.2986C984.365 28.9633 986.337 28.6353 988.31 28.313L990.847 27.9019L993.29 27.5125L995.537 27.1598L997.796 26.8105L1001.6 26.2349L1005.45 25.6654L1010.18 24.9871L1013.4 24.5363L1016.69 24.0852L1020.91 23.5195L1025.26 22.9495L1028.85 22.489L1032.54 22.0233L1037.3 21.4321L1041.25 20.9507L1046.36 20.3364L1052.79 19.578L1058.4 18.9258L1066.67 17.9774L1078.1 16.689L1096.83 14.6006L1108.68 13.2291L1114.01 12.6321L1117.69 12.2382L1119.66 12.0364L1122.01 11.8046L1123.39 11.6749L1125.64 11.472L1127.88 11.2824L1130.6 11.0672L1133 10.8905L1134.53 10.7846L1136.46 10.6611L1137.83 10.5821L1139.13 10.5151L1139.96 10.4773L1140.77 10.445L1141.92 10.4071L1142.66 10.389L1143.37 10.3768L1144.05 10.3705L1144.71 10.3703L1145.34 10.3762L1145.95 10.3882C1146.04 10.3907 1146.14 10.3935 1146.24 10.3966L1146.81 10.4181C1146.9 10.4222 1147 10.4266 1147.09 10.4313L1147.62 10.4624C1147.71 10.4681 1147.8 10.4742 1147.88 10.4804L1148.38 10.5214L1148.86 10.5691L1149.32 10.6236C1149.62 10.6621 1149.9 10.7052 1150.17 10.753L1150.56 10.8283C1150.69 10.8545 1150.82 10.882 1150.94 10.9106L1151.29 11.0001C1151.41 11.0312 1151.52 11.0634 1151.63 11.0969L1151.95 11.2011C1152 11.219 1152.05 11.2373 1152.1 11.2559L1152.39 11.3713C1153.8 11.967 1154.55 12.8468 1154.91 14.0595L1154.98 14.3065C1154.99 14.3484 1155 14.3906 1155.01 14.4333L1155.06 14.6938L1155.15 15.2733L1155.16 15.3365L1155.2 15.4587L1155.27 15.6776L1155.63 16.6665L1155.66 16.7425C1156.32 18.6781 1156.15 20.2922 1154.49 21.8379C1150.15 25.8746 1146.01 28.647 1139.66 31.2474L1138.77 31.6047L1137.91 31.9423L1137.34 32.1645L1136.18 32.6042L1135 33.0412L1134.09 33.3695L1133.16 33.7002L1132.2 34.0351L1130.86 34.491L1129.81 34.8421L1127.96 35.45L1125.96 36.093L1123.78 36.7791L1119.89 37.9863L1114.79 39.5406L1106.96 41.9162L1103.15 43.0945L1100.87 43.8148L1099.38 44.2978L1098.24 44.6697L1097.69 44.8521C1096.96 45.0953 1096.24 45.3391 1095.5 45.5913L1090.25 47.3915L1084.98 49.2138L1081 50.5982L1075.65 52.4719L1070.23 54.3823L1064.73 56.3348L1059.12 58.3347L1054.85 59.869L1049.04 61.9647L1041.57 64.6723L1035.06 67.0447L1033.95 67.4391L1032.79 67.8444L1031.56 68.2632L1029.8 68.8468L1028.39 69.3066L1026.37 69.954L1022.88 71.0488L1008.49 75.4766L1006.42 76.123L1003.79 76.9561L1001.9 77.5606L1000.1 78.1489L997.803 78.9099L996.166 79.4643L995.113 79.8266L994.089 80.1836L993.095 80.5355L992.129 80.8826L991.191 81.2252L989.834 81.7313L988.537 82.2289L987.703 82.5565L986.894 82.8811L986.108 83.203L985.346 83.5225L984.606 83.84L983.888 84.1556C983.77 84.2081 983.653 84.2605 983.537 84.3129L982.85 84.6264L982.183 84.9389L981.509 85.2642L980.837 85.5993L980.199 85.9292L979.595 86.2536C979.497 86.3072 979.4 86.3605 979.305 86.4136L978.752 86.7292C978.484 86.8854 978.228 87.0393 977.985 87.1906L977.515 87.4899C977.364 87.5885 977.219 87.6859 977.079 87.7821L976.677 88.067C975.133 89.1912 974.389 90.1311 974.423 90.7969C974.448 91.2785 974.907 91.8409 975.857 92.4537L976.157 92.6391C976.314 92.7325 976.482 92.827 976.662 92.9224L977.037 93.1146L977.442 93.3091L977.879 93.5059C978.029 93.5718 978.185 93.6381 978.346 93.7047L978.846 93.9053C978.932 93.9389 979.019 93.9726 979.107 94.0063L979.655 94.2094C979.843 94.2774 980.036 94.3455 980.235 94.4139L980.847 94.6197C980.952 94.654 981.058 94.6885 981.166 94.7229L981.829 94.9302L982.525 95.1382C982.763 95.2076 983.006 95.2772 983.255 95.3468L984.02 95.5558L984.819 95.765C984.955 95.7999 985.093 95.8348 985.232 95.8697L985.36 95.9002L985.647 95.9586C985.698 95.968 985.751 95.9774 985.806 95.9865L986.154 96.04L986.543 96.0901C986.612 96.0982 986.682 96.1062 986.754 96.1141L987.205 96.1596L987.698 96.202L988.233 96.2416L989.114 96.2956L990.09 96.3436L990.794 96.3723L991.931 96.4107L995.355 96.494L996.402 96.5162L998.521 96.553C999.233 96.5637 999.949 96.5727 1000.67 96.5801L1002.85 96.5974C1003.21 96.5995 1003.58 96.6012 1003.94 96.6024L1006.15 96.6055L1008.38 96.5991L1010.62 96.5836L1012.88 96.5589L1015.14 96.5253L1017.41 96.4828L1019.68 96.4317C1020.06 96.4225 1020.43 96.4129 1020.81 96.4029L1023.08 96.3391C1023.83 96.3164 1024.59 96.2923 1025.34 96.2668L1027.59 96.1864C1027.97 96.1723 1028.34 96.1579 1028.71 96.1431L1030.94 96.0506L1033.16 95.9502L1035.35 95.8421L1037.52 95.7264L1039.66 95.6032L1041.77 95.4727C1042.11 95.4503 1042.46 95.4277 1042.81 95.4047L1044.86 95.2635C1046.56 95.1429 1048.22 95.015 1049.83 94.8801L1051.73 94.715C1052.05 94.687 1052.36 94.6586 1052.67 94.63L1054.49 94.4552C1055.4 94.3662 1056.28 94.2749 1057.13 94.1812L1058.87 93.9854L1061.76 93.6451L1065.57 93.1801L1069.19 92.724L1074.53 92.0347L1081.22 91.15L1086.93 90.381L1096.98 89.0071L1111.73 86.9546L1126.21 84.9103L1150.98 81.3674L1176.78 77.6334L1193.08 75.2559L1235.93 68.9627L1300.41 59.4454L1304.25 58.9027L1309.44 58.1799L1314.7 57.4602L1318.67 56.924L1324 56.2157L1329.35 55.5173L1334.7 54.8313L1338.71 54.3264L1342.7 53.8309L1346.67 53.3458L1350.61 52.8721L1353.22 52.5633L1357.09 52.111L1360.93 51.6731L1363.45 51.3895L1365.95 51.113L1369.64 50.7123L1373.27 50.3292L1376.81 49.9649L1379.13 49.733L1381.41 49.5101L1384.75 49.1936L1387.99 48.8993L1390.08 48.7159L1392.13 48.5432L1394.02 48.3902L1397.39 48.1223L1400.57 47.8781L1403.58 47.6573L1406.44 47.4596L1409.15 47.2846L1410.46 47.2055L1412.37 47.0972L1413.61 47.032L1414.83 46.9721L1416.02 46.9177L1417.2 46.8686L1418.94 46.805L1420.64 46.7531L1421.76 46.7251L1423.44 46.6927L1424.54 46.6774L1426.2 46.664L1427.3 46.6614L1428.41 46.6636L1429.52 46.6707L1431.2 46.6906L1432.9 46.7212L1434.05 46.7475C1435.93 46.7942 1437.58 47.4188 1437.95 48.9983L1438 49.2715L1438.04 49.3881L1438.1 49.5289L1438.17 49.7015L1438.33 50.0368L1438.62 50.609C1439.97 53.3294 1439.84 55.4207 1436.88 57.3257L1436.63 57.487L1436.12 57.8061L1435.59 58.1218C1435.51 58.1741 1435.42 58.2264 1435.33 58.2786L1434.79 58.5909C1434.69 58.6429 1434.6 58.6948 1434.51 58.7467L1433.94 59.0582L1433.36 59.3705L1432.76 59.6846C1432.65 59.7371 1432.55 59.7898 1432.45 59.8427L1431.81 60.1616L1431.14 60.485L1430.45 60.814L1429.73 61.1498L1428.98 61.4933L1428.2 61.8457L1426.96 62.3932L1425.63 62.9666L1424.21 63.5697L1417.81 66.234L1416.5 66.7862L1415.32 67.292L1414.17 67.7949L1413.37 68.1529C1413.24 68.2119 1413.11 68.2705 1412.98 68.3289L1412.23 68.6749L1411.52 69.0132L1410.84 69.3438C1410.72 69.3983 1410.62 69.4525 1410.51 69.5063L1409.88 69.8259L1409.28 70.1382L1408.72 70.4434C1408.63 70.4937 1408.54 70.5437 1408.45 70.5934L1407.93 70.8884C1407.85 70.937 1407.77 70.9853 1407.69 71.0333L1407.22 71.3183C1407.14 71.3653 1407.07 71.412 1407 71.4584L1406.58 71.7338C1404.96 72.8231 1404.09 73.7638 1403.87 74.6017L1403.85 74.6675L1407.48 74.7094L1412.84 74.7862L1415.51 74.8128L1416.96 74.8204L1418.75 74.8201L1420.41 74.8072L1421.58 74.7888L1422.71 74.7626L1423.81 74.7282L1424.9 74.6853L1425.93 74.6353L1426.89 74.5764L1427.52 74.5303L1428.14 74.4779L1428.76 74.4183L1429.4 74.3506L1430.07 74.2741L1430.76 74.1879L1431.88 74.0385L1432.69 73.9244L1436.67 73.3429L1437.83 73.1831L1439.13 73.0207L1440 77.8117L1439 77.9354L1437.79 78.1L1434.13 78.6358L1432.81 78.8222L1432 78.9312L1431.24 79.0288L1430.51 79.116L1429.8 79.1935L1429.11 79.2623C1429 79.273 1428.89 79.2835 1428.77 79.2936L1428.09 79.3507L1427.41 79.4011C1427.29 79.409 1427.18 79.4166 1427.06 79.4241L1426.34 79.466L1425.6 79.5033L1424.84 79.5363L1423.7 79.5783L1422.55 79.6115L1421.36 79.6364L1420.55 79.6484L1418.84 79.6622L1417.47 79.6638L1415.51 79.6552L1413.35 79.6348L1404.7 79.5176L1403.44 79.5072C1403.23 79.5057 1403.02 79.5025 1402.81 79.4975L1402.21 79.4768C1402.11 79.4724 1402.02 79.4675 1401.93 79.4621C1401.61 79.4429 1401.33 79.4176 1401.07 79.3793C1400.85 79.3458 1400.63 79.3032 1400.41 79.2354C1400.19 79.1721 1399.98 79.0923 1399.76 78.9778C1399.33 78.7522 1398.95 78.4455 1398.67 77.9872C1396.82 74.9393 1397.86 71.9456 1401.06 69.2702C1402.56 68.0146 1404.51 66.812 1407.09 65.5123L1407.93 65.0984C1408.5 64.8201 1409.1 64.5368 1409.73 64.2472L1410.7 63.8076L1411.72 63.3575L1412.48 63.0252L1413.28 62.6817L1415.04 61.9374L1420.9 59.5037L1422.72 58.7333L1423.56 58.3682L1424.77 57.843L1425.52 57.5065L1426.59 57.0199L1427.27 56.7061L1427.91 56.3998L1428.53 56.0999L1429.12 55.8057L1429.69 55.5161L1430.24 55.2301L1430.76 54.9469C1430.85 54.8999 1430.93 54.853 1431.02 54.8061L1431.52 54.5252C1431.6 54.4785 1431.68 54.4318 1431.76 54.385L1432.23 54.1045C1432.31 54.0576 1432.39 54.0108 1432.46 53.9638L1432.92 53.6814L1433.33 53.4171C1433.44 53.3313 1433.46 53.2621 1433.36 53.0337L1433.28 52.8762L1432.71 51.7258L1432.63 51.5586L1431.64 51.5407L1430 51.518L1428.37 51.506L1426.75 51.5047L1425.68 51.51L1424.06 51.5271L1422.43 51.5553L1420.79 51.5949L1419.68 51.6277L1418.56 51.6656L1416.84 51.7323L1415.09 51.8108L1413.29 51.9012L1411.43 52.0038L1410.16 52.079L1407.52 52.246L1404.75 52.4353L1402.58 52.5921L1399.53 52.8213L1395.45 53.1407L1392.79 53.3562L1390.87 53.5183L1387.89 53.7794L1385.85 53.965L1383.78 54.1595L1381.66 54.3627L1379.51 54.5743L1376.21 54.9068L1372.84 55.2568L1369.4 55.6234L1365.9 56.0056L1362.34 56.4025L1359.94 56.6749L1356.31 57.0945L1353.86 57.3811L1350.16 57.8209L1345.18 58.424L1341.42 58.8879L1337.64 59.3606L1332.59 60.003L1327.54 60.6575L1323.61 61.1732C1317.76 61.9481 1311.95 62.7399 1306.28 63.5336L1300.49 64.3561L1233.8 74.1977L1184.73 81.3965L1159.69 85.0313L1136.44 88.3716L1122.71 90.3231L1107.87 92.4091L1096.53 93.9823L1086.32 95.3742L1078.83 96.375L1073.56 97.0655L1069.43 97.5953L1066.88 97.9162L1064.74 98.18L1061.28 98.5967L1058.81 98.882C1057.95 98.9792 1057.07 99.074 1056.17 99.1665L1054.33 99.3481L1052.44 99.5232L1050.5 99.6915C1049.52 99.774 1048.52 99.854 1047.5 99.9313L1045.45 100.082L1043.36 100.226C1043.01 100.25 1042.66 100.273 1042.3 100.295L1040.16 100.428C1039.8 100.45 1039.44 100.471 1039.07 100.492L1036.89 100.614C1036.52 100.633 1036.15 100.653 1035.78 100.672L1033.56 100.782C1032.81 100.817 1032.06 100.851 1031.31 100.884L1029.04 100.978L1026.76 101.064L1024.47 101.141L1022.18 101.211C1021.79 101.221 1021.41 101.232 1021.03 101.242L1018.72 101.298L1016.42 101.346C1016.04 101.353 1015.65 101.36 1015.27 101.366L1012.97 101.4C1012.21 101.41 1011.45 101.419 1010.68 101.425L1008.41 101.441L1006.15 101.448L1003.91 101.444L1001.69 101.432L999.49 101.409L997.324 101.377C996.965 101.37 996.608 101.364 996.252 101.357L992.125 101.261L991.241 101.235L990.405 101.206L989.615 101.173L988.87 101.138L988.167 101.098L987.505 101.054C987.29 101.038 987.083 101.022 986.881 101.005L986.295 100.951L985.743 100.891C985.565 100.87 985.393 100.848 985.225 100.825L984.739 100.753C984.582 100.728 984.43 100.701 984.282 100.674L983.854 100.588C983.715 100.557 983.581 100.526 983.451 100.494L982.975 100.373L982.047 100.129C980.678 99.7608 979.41 99.3806 978.245 98.9865L977.484 98.7217C971.638 96.6308 968.591 94.1497 968.429 90.9984C968.249 87.5138 971.653 84.4791 978.006 81.317L978.783 80.9369L979.482 80.6046L980.199 80.2723L980.936 79.9397L981.693 79.6063L982.47 79.2718L983.269 78.936L984.09 78.5984L984.934 78.2587L986.245 77.7446L987.15 77.3982L988.08 77.0486L989.037 76.6953L990.523 76.158L992.073 75.6106L993.142 75.2395L994.803 74.6729L995.949 74.2879L997.728 73.6989L998.955 73.2979L1001.51 72.4745L1003.52 71.837L1005.61 71.1811L1012.11 69.1773L1020.85 66.4918L1023.63 65.6209L1025.65 64.9769L1027.06 64.521L1028.8 63.9447L1030.02 63.5332L1031.17 63.1369L1032.25 62.7534L1032.94 62.5037L1037.58 60.8117L1043.62 58.6167L1048.06 57.0131L1053.85 54.9278L1059.52 52.8979L1066.46 50.4303L1071.91 48.5054L1077.29 46.6185L1081.29 45.2251L1086.58 43.3919L1090.53 42.0325L1094 40.8456L1095.96 40.1916L1097.68 39.629L1100.15 38.8407L1103.73 37.7287L1109.1 36.0888L1116.1 33.9669L1120.14 32.7228L1122.82 31.8847L1124.85 31.238L1126.73 30.6299L1128.12 30.1663L1129.44 29.7187L1131.31 29.0687L1132.19 28.7498L1133.06 28.4328L1134.47 27.9042L1135.57 27.4765L1136.4 27.1505C1142.13 24.8603 1145.75 22.5225 1149.59 19.0093L1149.96 18.6656C1150.01 18.6168 1150.04 18.5902 1150.02 18.493L1149.99 18.3903L1149.92 18.143L1149.74 17.6419L1149.52 17.0498L1149.43 16.791L1149.35 16.5552L1149.29 16.3146L1149.24 16.1036L1149.2 15.8957L1149.14 15.5357L1149.01 15.5066L1148.8 15.4682L1148.66 15.445L1148.35 15.4019C1148.3 15.3951 1148.25 15.3885 1148.19 15.3821L1147.84 15.3457L1147.47 15.3138L1147.07 15.2866L1146.64 15.264L1146.18 15.246L1145.69 15.2329L1145.17 15.2245L1144.33 15.2212C1144.24 15.2214 1144.14 15.2218 1144.04 15.2225L1143.43 15.2289L1142.78 15.2403L1141.76 15.2671L1140.66 15.3054L1139.49 15.3555L1138.25 15.4176L1136.92 15.4919L1135.04 15.6102L1134.04 15.6777L1132.55 15.7849L1129.82 15.9925L1127.16 16.2108L1124.94 16.4055L1122.24 16.6598L1118.91 16.9932L1115.85 17.3176L1111.34 17.817L1104.77 18.57L1093.94 19.8179L1080.64 21.2938L1072.16 22.2452L1062.88 23.3007L1057.85 23.8803L1050.66 24.7213L1047.21 25.1304L1042.75 25.6653L1037.39 26.319L1032.26 26.9588L1028.29 27.4626L1023.5 28.0844L1020.71 28.4544L1016.17 29.0678L1013.51 29.4349L1010.03 29.9245L1007.47 30.2926L1004.1 30.7857L1002.44 31.0337L999.961 31.4079L995.875 32.0391L992.632 32.5524L988.596 33.2069L986.983 33.4733L984.459 33.8953L973.547 35.7467L963.671 37.4323L949.887 39.8019L939.792 41.5499L924.097 44.2878L898.986 48.7095L870.063 53.8448L782.021 69.572L754.067 74.5622L743.012 76.5639L733.554 78.3086L726.425 79.654L722.763 80.3575L718.212 81.2437L691.276 86.5717L650.255 94.7363L593.247 106.155L450.445 134.836L417.751 141.367L363.815 152.079L332.166 158.304L318.612 160.942L306.416 163.295L297.751 164.954L290.211 166.39L282.784 167.795L277.242 168.826L272.364 169.717L268.183 170.469L262.113 171.547L256.672 172.498L249.998 173.651L241.877 175.035L230.343 176.982L223.69 178.149L209.247 180.707L206.607 181.164L204.487 181.52L203.166 181.728L202.167 181.869L200.732 182.059L199.276 182.236L197.784 182.4L196.554 182.524L195.606 182.612L194.302 182.723L192.946 182.829L191.53 182.929L190.047 183.024L187.68 183.157L185.996 183.241L183.294 183.359L180.358 183.471L177.163 183.578L171.832 183.731L165.284 183.892L162.788 183.943L160.951 183.973L158.839 183.995L157.665 184L156.557 183.998L155.51 183.988L154.846 183.977L154.206 183.962L153.59 183.943L152.997 183.921L152.426 183.894L151.609 183.846L151.089 183.809L150.587 183.767L150.103 183.72L149.635 183.669L149.182 183.613L148.744 183.551L148.319 183.484L147.907 183.412L147.506 183.335L147.115 183.252L146.734 183.163L146.36 183.069L145.995 182.968L145.635 182.861L145.281 182.748L144.93 182.629L144.584 182.503L144.239 182.371L143.896 182.232L143.38 182.01L142.862 181.772L142.514 181.604L141.983 181.339L141.622 181.152L140.882 180.756L140.304 180.438L140.107 180.328C136.742 178.443 134.788 176.228 134.294 173.727L134.187 173.18L133.986 172.114L133.801 171.083L133.634 170.085C133.607 169.921 133.582 169.758 133.557 169.597L133.415 168.645C132.687 163.486 132.763 159.599 133.85 155.458C135.717 148.344 140.647 142.144 149.408 136.698C151.664 135.295 154.017 133.888 156.466 132.476L158.114 131.535C160.053 130.435 162.051 129.333 164.109 128.227L165.887 127.278C168.575 125.853 171.362 124.423 174.248 122.986L176.187 122.027C177.163 121.547 178.151 121.066 179.15 120.585L181.162 119.621L183.203 118.654L185.274 117.685L187.375 116.714C187.728 116.552 188.081 116.39 188.436 116.228L190.582 115.253L192.757 114.276L194.961 113.297L197.196 112.315L199.46 111.33L201.754 110.342C202.524 110.013 203.299 109.683 204.079 109.352L206.433 108.359C206.828 108.194 207.224 108.028 207.622 107.862L210.021 106.864C210.423 106.698 210.827 106.531 211.232 106.365L213.677 105.363L216.152 104.358L218.657 103.35L221.193 102.339L223.759 101.325L226.355 100.307L228.982 99.2865L231.639 98.2622L234.327 97.2345L237.046 96.2033L239.796 95.1686L242.576 94.1302L245.387 93.0882L248.228 92.0424L251.101 90.9928L254.005 89.9394L256.939 88.882L259.905 87.8207L262.544 86.8821L265.941 85.6805L269.272 84.5097L272.609 83.3436L277.078 81.7934L281.58 80.2446L284.986 79.0814L288.423 77.915L291.896 76.7437L296.591 75.1714L300.167 73.982L305.019 72.3793L308.726 71.1624L313.772 69.5169L318.945 67.8413L322.916 66.5625L328.341 64.8246L333.927 63.0456L341.155 60.7577L348.677 58.3911L356.517 55.9381L366.378 52.869L378.558 49.0984L393.451 44.5117L432.395 32.5742L442.678 29.4452L451.791 26.6965L458.345 24.7411L463.431 23.2392L467.819 21.9561L471.385 20.9226L474.943 19.8995L478.251 18.9557L481.607 18.0045L484.182 17.2798L487.085 16.4766L489.14 15.9197L491.627 15.2581L495.069 14.3611L499.846 13.1428L506.635 11.4407L521.64 7.70857L527.167 6.31154L455.167 14.3928L436.837 16.4678L419.395 18.4627L403.726 20.281L390.249 21.8723L379.255 23.1935L372.075 24.0687L367.819 24.592L360.131 25.5459L348.575 26.9968L336.052 28.5815L326.771 29.764L315.058 31.2669L299.34 33.3019L283.077 35.4286L264.453 37.8866L232.799 42.1066L198.108 46.7704L100.254 59.9855L73.5413 63.4782L63.4328 64.8282L58.0672 65.5627L52.6225 66.3275L48.5994 66.9095L44.3641 67.5423L40.806 68.0932L37.3937 68.6407L34.902 69.0533L34.0414 69.1985C32.6102 69.441 31.1938 69.6866 29.7747 69.9381L28.0694 70.2429L22.9668 71.164L15.437 72.53L10.4778 73.4344L5.54936 74.337L-5.14609 76.3098L-16.5715 78.4386L-30.6681 81.0945L-42.9561 83.4333L-54.6006 85.6669L-72.684 89.162L-97.5391 94.0028L-197.555 113.6L-213.737 116.735L-222.61 118.444L-224 113.734L-210.768 111.182L-180.619 105.314L-104.809 90.442L-79.4439 85.4944L-63.6497 82.4334L-50.5932 79.9193L-38.2811 77.566L-29.4312 75.8868L-19.4147 74.0005L-11.0096 72.4302L-1.31168 70.6331L6.99199 69.1071L18.1836 67.0678L28.4863 65.209L30.207 64.9066L33.6652 64.315L36.7448 63.8064L38.9963 63.445L40.8388 63.1554L44.173 62.6443L46.6572 62.2733L50.8465 61.6638L54.7658 61.1086L60.2137 60.3556L67.6018 59.3591L74.3354 58.4673L102.475 54.7828L202.108 41.3222L240.296 36.1952L261.132 33.42L281.805 30.6899L299.851 28.3309L314.607 26.4215L322.564 25.3997L331.836 24.2158L342.829 22.8212L354.024 21.4104L359.788 20.6891L366.911 19.8057L377.457 18.5151L385.653 17.5267L398.904 15.9537L406.889 15.0191L421.865 13.2878L442.285 10.9596L470.405 7.7899L526.421 1.50736L527.715 1.3676L529.043 1.2318L530.414 1.09887L532.328 0.924212L534.364 0.750123L536.547 0.574014L540.797 0.25317L542.813 0.107903L543.443 0.0689972C543.556 0.0628653 543.672 0.0569624 543.791 0.051368L544.508 0.0221372C544.746 0.0140505 544.979 0.00783224 545.194 0.00411708Z" fill="white" fill-opacity="0.2"/>
</svg>
